<svg height="512" viewBox="0 0 64 64" width="512" xmlns="http://www.w3.org/2000/svg"><g id="flat"><rect fill="#394d5c" height="34" rx="2" width="58" x="3" y="3"/><path d="m7 7h50v26h-50z" fill="#f4f4e6"/><path d="m9 49h46v12h-46z" fill="#394d5c"/><path d="m13 53h38v4h-38z" fill="#f4f4e6"/><path d="m40 37v8h-16v-8h-4l-4 12h32l-4-12z" fill="#7d8d9c"/><path d="m28 27a4 4 0 0 0 -4 4v14h16v-14l4-4z" fill="#87cee9"/><path d="m21 44h22v2h-22z" fill="#394d5c"/><path d="m27 31h10v2h-10z" fill="#f4f4e6"/><path d="m27 35h10v2h-10z" fill="#f4f4e6"/><path d="m27 39h10v2h-10z" fill="#f4f4e6"/><path d="m11 11h16v8h-16z" fill="#f9bb4b"/><path d="m14 14h2v2h-2z" fill="#fcf05a"/><path d="m18 14h2v2h-2z" fill="#fcf05a"/><path d="m11 23h4v4h-4z" fill="#f9bb4b"/><path d="m15 23h4v4h-4z" fill="#ffd782"/><path d="m41 11h12v4h-12z" fill="#f9bb4b"/><g fill="#e97424"><path d="m30 10h8v2h-8z"/><path d="m30 14h8v2h-8z"/><path d="m30 18h15v2h-15z"/><path d="m47 18h7v2h-7z"/><path d="m22 22h15v2h-15z"/><path d="m39 22h15v2h-15z"/></g><path d="m44 27a4 4 0 0 0 -4 4v2h8v-2a4 4 0 0 0 -4-4z" fill="#2d75bb"/></g></svg>