<?xml version="1.0"?>
<svg xmlns="http://www.w3.org/2000/svg" id="Layer_1" data-name="Layer 1" viewBox="0 0 512 512" width="512" height="512"><title>Shopping Cart </title><g id="_Group_" data-name=" Group "><path d="M467.97,193.56l-33.4,115.39c-5.78,19.98-24.67,33.79-46.21,33.79H143.82l-.43.08L117.08,193.57l.04-.01h84.13l.21-.06a93.335,93.335,0,0,0,179.81-.07l.48.13Z" style="fill:#00acea"/><ellipse cx="370.58" cy="466.85" rx="36.46" ry="35.1" style="fill:#00efd1"/><path d="M384.67,168.41A93.315,93.315,0,1,1,291.36,75.1,93,93,0,0,1,384.67,168.41Zm-23.66,0a69.655,69.655,0,1,0-69.65,69.66A69.646,69.646,0,0,0,361.01,168.41Z" style="fill:#fedb41"/><path d="M291.36,98.76a69.655,69.655,0,1,1-69.66,69.65A69.646,69.646,0,0,1,291.36,98.76Z" style="fill:#00efd1"/><ellipse cx="177.4" cy="466.85" rx="36.46" ry="35.1" style="fill:#00efd1"/><path d="M407.04,397H194.89c-19.585,0-36.164-13.345-39.422-31.8l-30.51-173.049-.99-5.725C117.391,149.169,84.239,122,45.14,122H44.03a8,8,0,0,0,0,16h1.11c31.321,0,57.847,21.623,63.072,51.223l31.5,178.688C144.321,394.026,167.527,413,194.89,413H407.04a8,8,0,0,0,0-16Z" style="fill:#fedb41"/><path d="M291.36,198.8a10.051,10.051,0,0,1-10.04-10.04,8,8,0,0,0-16,0A26.08,26.08,0,0,0,282,213.053V218a8,8,0,0,0,16,0v-4.061a26.04,26.04,0,0,0-6.64-51.219,10.04,10.04,0,1,1,10.04-10.04,8,8,0,0,0,16,0A26.085,26.085,0,0,0,298,127.5V125a8,8,0,0,0-16,0v3.387a26.036,26.036,0,0,0,9.36,50.333,10.04,10.04,0,0,1,0,20.08Z" style="fill:#00acea"/><path d="M291,49a8,8,0,0,0,8-8V10a8,8,0,0,0-16,0V41A8,8,0,0,0,291,49Z" style="fill:#fedb41"/><path d="M331,59a8,8,0,0,0,8-8V20a8,8,0,0,0-16,0V51A8,8,0,0,0,331,59Z" style="fill:#fedb41"/><path d="M251,59a8,8,0,0,0,8-8V20a8,8,0,0,0-16,0V51A8,8,0,0,0,251,59Z" style="fill:#fedb41"/></g></svg>
