<svg id="Capa_1" enable-background="new 0 0 512 512" height="512" viewBox="0 0 512 512" width="512" xmlns="http://www.w3.org/2000/svg"><g><path d="m241 0h30v90h-30z" fill="#ffda44"/><path d="m165.994 44.92h30v60h-30z" fill="#ffda44" transform="matrix(.924 -.383 .383 .924 -14.893 74.966)"/><path d="m59.919 150.994h30v60h-30z" fill="#ffda44" transform="matrix(.383 -.924 .924 .383 -120.968 180.948)"/><path d="m44.92 316.006h60v30h-60z" fill="#ffda44" transform="matrix(.924 -.383 .383 .924 -120.966 53.866)"/><path d="m150.994 422.08h60v30h-60z" fill="#ffda44" transform="matrix(.383 -.924 .924 .383 -292.079 437.037)"/><g fill="#ffb655"><path d="m316.006 407.08h30v60h-30z" transform="matrix(.924 -.383 .383 .924 -142.066 159.94)"/><path d="m422.08 301.006h30v60h-30z" transform="matrix(.383 -.924 .924 .383 -35.992 608.147)"/><path d="m407.08 165.994h60v30h-60z" transform="matrix(.924 -.383 .383 .924 -35.993 181.038)"/><path d="m301.006 59.919h60v30h-60z" transform="matrix(.383 -.924 .924 .383 135.12 352.06)"/><path d="m360.2 91.801h90v30h-90z" transform="matrix(.707 -.707 .707 .707 43.161 317.801)"/><path d="m422 241h90v30h-90z"/><path d="m390.2 360.2h30v90h-30z" transform="matrix(.707 -.707 .707 .707 -167.839 405.2)"/></g><path d="m241 422h30v90h-30z" fill="#ffda44"/><path d="m61.8 390.2h90v30h-90z" fill="#ffda44" transform="matrix(.707 -.707 .707 .707 -255.238 194.2)"/><path d="m0 241h90v30h-90z" fill="#ffda44"/><path d="m91.801 61.8h30v90h-30z" fill="#ffda44" transform="matrix(.707 -.707 .707 .707 -44.238 106.8)"/><path d="m256 120-20 137 20 135c74.991 0 136-61.009 136-136s-61.009-136-136-136z" fill="#ffda44"/><path d="m120 256c0 74.991 61.009 136 136 136v-272c-74.991 0-136 61.009-136 136z" fill="#fff79f"/></g></svg>