<svg height="512" viewBox="0 0 58 58" width="512" xmlns="http://www.w3.org/2000/svg"><g id="Page-1" fill="none" fill-rule="evenodd"><g id="018---Shoes" fill-rule="nonzero"><path id="Shape" d="m57 50v-21c-.0032948-1.1032019-.8967981-1.9967052-2-2h-1.27c-.9209066.0050739-1.7204416.635635-1.94 1.53-.6696694 2.9014872-2.220572 5.5247482-4.44 7.51-2.8191903.2559937-5.660836.08745-8.43-.5l11.62-11.62c1.9519097-1.9524993 1.9519097-5.1175007 0-7.07l-.79-.79-.63-.63c-.3900375-.3877236-1.0199625-.3877236-1.41 0l-.71-.7-4.24-4.25-9.9-9.9c-.7861438-.77014827-2.0438562-.77014827-2.83 0l-.9.9c-.6457304.65821371-.7649673 1.66967153-.29 2.46 1.5782309 2.52144858 2.3363322 5.47000853 2.17 8.44-2.2161964 2.7123362-4.9534078 4.9531093-8.05 6.59l-2.19-5.45c-.3665848-.9321333-1.3691153-1.4462515-2.34-1.2l-2.28.57c-.9491539.2365454-1.5879409 1.1249246-1.51 2.1.051.592.095 1.323.128 2.167l-3.368.843c-.4895717.1226969-.8109744.5909795-.7494367 1.0919267.0615377.5009473.4867242.8775169.9914367.8780733.0819433.0003256.1635963-.009755.243-.03l2.927-.731c0 .687 0 1.419-.023 2.186l-3.389.848c-.4895717.1226969-.8109744.5909795-.7494367 1.0919267.0615377.5009473.4867242.8775169.9914367.8780733.0819433.0003256.1635963-.009755.243-.03l2.81-.7c-.0433333.72-.102 1.4616667-.176 2.225l-3.119.779c-.4915968.1210315-.8151822.5903663-.7534847 1.0928695s.4892102.879618.9954847.8781305c.0819126-.0001775.1635037-.0102505.243-.03l2.387-.6c-.1233333.928-.277 1.8703333-.461 2.827l-3.118.779c-.4893901.122648-.81076819.5906407-.74950388 1.0914319.06126428.5007913.48598028.8775105.99050388.8785681.0822065.0002304.1641377-.0095073.244-.029l2.179-.545c-.7768646 3.3953904-2.0505879 6.6575371-3.78 9.681v.01c-.66.13-1.33.24-2 .33-.52.07-1.05.12-1.58.15 0 0-5.17 0-5.91 4-.06088807.3294505-.09002159.6639837-.087.999-.00382259.6994875.04632621 1.3982275.15 2.09 1.15 7.91 8.85 7.91 8.85 7.91h44c2.7614237 0 5-2.2385763 5-5v-2c0-.5522847-.4477153-1-1-1z" fill="#e64c3c"/><path id="Shape" d="m47.71 15.43-10.75 10.75-.48-.29c-.6348649-.3900935-1.4351351-.3900935-2.07 0 1.54-3.86 2.65-6.88 3.12-8.24.1766515-.4841361.055625-1.0268032-.31-1.39l-.02-.02c-.4540226-.4561288-1.1688447-.5234062-1.7-.16-2.1 1.42-7.54 4.55-12.54 2.89 3.0965922-1.6368907 5.8338036-3.8776638 8.05-6.59.8185096-.9642044 1.6863352-1.8854346 2.6-2.76.7945665-.69015597 1.988056-.64643841 2.73.1l.76.76c.4449838.4475961 1.0751379.6588831 1.7.57l3.96-.57 4.24 4.25z" fill="#e57e25"/><path id="Shape" d="m42.76 10.48-3.96.57c-.6248621.0888831-1.2550162-.1224039-1.7-.57l-.76-.76c-.741944-.74643841-1.9354335-.79015597-2.73-.1-.9136648.8745654-1.7814904 1.7957956-2.6 2.76.1663322-2.96999147-.5917691-5.91855142-2.17-8.44-.4749673-.79032847-.3557304-1.80178629.29-2.46l.9-.9c.7861438-.77014827 2.0438562-.77014827 2.83 0z" fill="#c03a2b"/><path id="Shape" d="m37.53 17.65c-.47 1.36-1.58 4.38-3.12 8.24-.1824095.1121071-.3446713.2540862-.48.42-2.93 3.42-11.56 12.58-22.3 15.69-.68.2-1.36.37-2.05.51 1.9087038-3.352293 3.2692052-6.9881737 4.03-10.77v-.01c.3552446-1.6416432.6256035-3.3005123.81-4.97.18-1.52.28-2.97.34-4.33.06-1.56.07-3 .04-4.25-.03-1.29-.09-2.37-.16-3.19-.0779409-.9750754.5608461-1.8634546 1.51-2.1l2.28-.57c.9708847-.2462515 1.9734152.2678667 2.34 1.2l2.19 5.45c5 1.66 10.44-1.47 12.54-2.89.5311553-.3634062 1.2459774-.2961288 1.7.16l.02.02c.365625.3631968.4866515.9058639.31 1.39z" fill="#c03a2b"/><path id="Shape" d="m57 43v7h-22c6.32-2.37 11.39-4.74 13.24-5.63.465129-.2181794.7615701-.6862445.76-1.2v-.03c-.0018631-.6437054-.4582669-1.1964146-1.09-1.32-2.49-.48-8.55-2.11-10.91-6.82.6298411.2143398 1.2707694.3946009 1.92.54 2.769164.58745 5.6108097.7559937 8.43.5 1.2598858-.1143069 2.5254065-.1543761 3.79-.12 1.0495509.073646 1.8625807.9478716 1.86 2v1.08c.0020295.6290338.2979907 1.2209561.8 1.6z" fill="#f29c1f"/><path id="Shape" d="m58 51v2c0 2.7614237-2.2385763 5-5 5h-44s-7.7 0-8.85-7.91c-.10367379-.6917725-.15382259-1.3905125-.15020307-2.09 0 0 8.00020307 5 13.00020307 5h7c3.0604928.0462851 6.1126993-.3306136 9.07-1.12.9-.23 1.87-.5 2.92-.83.82-.26 1.68-.56 2.6-.9.13-.05.27-.1.41-.15h22c.5522847 0 1 .4477153 1 1z" fill="#a5a5a4"/><path id="Shape" d="m58 53c0 2.7614237-2.2385763 5-5 5h-44s-7.7 0-8.85-7.91c1.1.67 8.25 4.91 12.85 4.91h7c3.0604928.0462851 6.1126993-.3306136 9.07-1.12.9-.23 1.87-.5 2.92-.83.82-.26 1.68-.56 2.6-.9.13-.05.27-.1.41-.15h22c.5522847 0 1 .4477153 1 1z" fill="#d1d4d1"/><path id="Shape" d="m29.07 51.88c-2.9573007.7893864-6.0095072 1.1662851-9.07 1.12h-7c-5 0-13-5-13-5-.00209645-.3354465.02804202-.6703184.09-1 .74-4 5.91-4 5.91-4 .53-.03 1.06-.08 1.58-.15h8.83c.6110567.0176319 1.2196963.0845153 1.82.2 4.8793461.9094242 8.9624747 4.2354414 10.84 8.83z" fill="#f29c1f"/><path id="Shape" d="m54 55h-10c-.5522847 0-1-.4477153-1-1s.4477153-1 1-1h10c.5522847 0 1 .4477153 1 1s-.4477153 1-1 1z" fill="#7f8c8d"/><path id="Shape" d="m24 40c-.1811634.000064-.3588994-.049384-.514-.143l-5-3c-.3132279-.1806127-.5045637-.516242-.5004101-.8777878.0041537-.3615459.2031497-.6926908.5204443-.8660598.3172946-.1733689.7034632-.1619565 1.0099658.0298476l5 3c.3851623.2315989.5685031.6916998.4481796 1.1247244-.1203235.4330245-.5147489.732583-.9641796.7322756z" fill="#ecf0f1"/><path id="Shape" d="m28 37c-.1811634.000064-.3588994-.049384-.514-.143l-5-3c-.3132279-.1806127-.5045637-.516242-.5004101-.8777878.0041537-.3615459.2031497-.6926908.5204443-.8660598.3172946-.1733689.7034632-.1619565 1.0099658.0298476l5 3c.3851623.2315989.5685031.6916998.4481796 1.1247244-.1203235.4330245-.5147489.732583-.9641796.7322756z" fill="#ecf0f1"/><path id="Shape" d="m31 34c-.1811634.000064-.3588994-.049384-.514-.143l-5-3c-.3132279-.1806127-.5045637-.516242-.5004101-.8777878.0041537-.3615459.2031497-.6926908.5204443-.8660598.3172946-.1733689.7034632-.1619565 1.0099658.0298476l5 3c.3851623.2315989.5685031.6916998.4481796 1.1247244-.1203235.4330245-.5147489.732583-.9641796.7322756z" fill="#ecf0f1"/><path id="Shape" d="m34 31c-.1811634.000064-.3588994-.049384-.514-.143l-5-3c-.3132279-.1806127-.5045637-.516242-.5004101-.8777878.0041537-.3615459.2031497-.6926908.5204443-.8660598.3172946-.1733689.7034632-.1619565 1.0099658.0298476l5 3c.3851623.2315989.5685031.6916998.4481796 1.1247244-.1203235.4330245-.5147489.732583-.9641796.7322756z" fill="#ecf0f1"/><path id="Shape" d="m50.54 23.92-11.62 11.62c-.6492306-.1453991-1.2901589-.3256602-1.92-.54l2.31-5.4c.3954627-.918531.048984-1.9879098-.81-2.5l-1.54-.92 10.75-10.75c.3900375-.3877236 1.0199625-.3877236 1.41 0l1.42 1.42c1.9519097 1.9524993 1.9519097 5.1175007 0 7.07z" fill="#d1d4d1"/><path id="Shape" d="m42.9 26.9c-.4043959-.0000863-.7689341-.2437275-.923678-.6173454-.1547439-.373618-.0692299-.8036603.216678-1.0896546l5.517-5.516c.2510745-.2599566.6228779-.3642126.9725073-.2726972.3496295.0915155.6226744.3645604.7141899.7141899.0915154.3496294-.0127406.7214328-.2726972.9725073l-5.517 5.516c-.1870531.1882061-.4416514.2937185-.707.293z" fill="#7f8c8d"/><g fill="#d1d4d1"><path id="Shape" d="m10.937 33.4c-.5045236-.0010576-.9292396-.3777768-.99050388-.8785681-.06126431-.5007912.26011378-.9687839.74950388-1.0914319l5.657-1.414c.5300108-.1192665 1.0582917.2064318 1.1897969.7335393.1315052.5271076-.1818752 1.0627873-.7057969 1.2064607l-5.656 1.415c-.0798623.0194927-.1617935.0292304-.244.029z"/><path id="Shape" d="m11.645 28.454c-.5062745.0014875-.9337872-.3756273-.9954847-.8781305s.2618879-.971838.7534847-1.0928695l5.658-1.414c.5300108-.1192665 1.0582917.2064318 1.1897969.7335393.1315052.5271076-.1818752 1.0627873-.7057969 1.2064607l-5.657 1.415c-.0794963.0197495-.1610874.0298225-.243.03z"/><path id="Shape" d="m11.645 24.211c-.5047125-.0005564-.929899-.377126-.9914367-.8780733-.0615377-.5009472.259865-.9692298.7494367-1.0919267l5.658-1.415c.5359923-.1336529 1.0788471.1925077 1.2125.7285s-.1925077 1.0788471-.7285 1.2125l-5.657 1.414c-.0794037.020245-.1610567.0303256-.243.03z"/><path id="Shape" d="m11.645 19.968c-.5022645-.0029551-.9244064-.3780187-.9864564-.8764445-.0620499-.4984257.2552472-.9655435.7414564-1.0915555l5.658-1.415c.5359923-.1336529 1.0788471.1925077 1.2125.7285s-.1925077 1.0788471-.7285 1.2125l-5.657 1.414c-.0785166.0193205-.1591445.0287271-.24.028z"/></g><path id="Shape" d="m49.75 16.06c-.3618527-.1327586-.7678747-.0429653-1.04.23l-10.59 10.59-1.16-.7 10.75-10.75c.3900375-.3877236 1.0199625-.3877236 1.41 0z" fill="#a5a5a4"/></g></g></svg>